# xmcd
#
# Track frame offsets: 
#        150
#        13440
#        27507
#        42160
#        54692
#        68015
#        80420
#        92770
#        104370
#        117915
#        130907
#        143480
#        156722
#        170360
#        184395
#        196020
#        209062
#        221605
#        233355
#        246095
#        260270
#        274760
#        286075
#        297955
#
# Disc length: 4173 seconds
#
# Revision: 5
# Processed by: cddbd v1.5.2PL0 Copyright (c) Steve Scherf et al.
# Submitted via: ExactAudioCopy v0.99pb5
#
DISCID=66104b18
DTITLE=Muddy Waters - The Real Folk Blues More Real Folk Blues
DYEAR=2002
DGENRE=Blues
TTITLE0=Mannish Boy
TTITLE1=Screamin' And Cryin'
TTITLE2=Just To Be With You
TTITLE3=Walking Through the Park
TTITLE4=Walkin' Blues
TTITLE5=Canary Bird
TTITLE6=The Same Thing
TTITLE7=Gypsy Woman
TTITLE8=Rollin' And Tumblin'
TTITLE9=Forty Days and Forty Nights
TTITLE10=Little Geneva
TTITLE11=You Can't Lose What You Ain't Never Had
TTITLE12=Sad Letter Blues
TTITLE13=You're Gonna Need My Help I Said
TTITLE14=Sittin Here and Drinkin' (Whiskey Blues)
TTITLE15=Down South Blues
TTITLE16=Train Fare Home Blues
TTITLE17=Kind Hearted Woman
TTITLE18=Appealing Blues(Hello Little Girl)
TTITLE19=Early Morning Blues
TTITLE20=Too Young To Know
TTITLE21=She's All Right
TTITLE22=Landlady
TTITLE23=Honey Bee
EXTD=
EXTT0=
EXTT1=
EXTT2=
EXTT3=
EXTT4=
EXTT5=
EXTT6=
EXTT7=
EXTT8=
EXTT9=
EXTT10=
EXTT11=
EXTT12=
EXTT13=
EXTT14=
EXTT15=
EXTT16=
EXTT17=
EXTT18=
EXTT19=
EXTT20=
EXTT21=
EXTT22=
EXTT23=
PLAYORDER=
